<mxfile host="5d84b921-908b-4969-8a2e-f1179d1ef2ab" modified="2020-09-09T12:19:32.014Z" agent="5.0 (Windows NT 10.0; Win64; x64) AppleWebKit/537.36 (KHTML, like Gecko) Code/1.48.2 Chrome/78.0.3904.130 Electron/7.3.2 Safari/537.36" etag="Nlgg9XIUuZ-rmZY4UpOX" version="13.1.3">
    <diagram id="6hGFLwfOUW9BJ-s0fimq" name="Page-1">
        <mxGraphModel dx="845" dy="627" grid="1" gridSize="10" guides="1" tooltips="1" connect="1" arrows="1" fold="1" page="1" pageScale="1" pageWidth="827" pageHeight="1169" math="0" shadow="0">
            <root>
                <mxCell id="0"/>
                <mxCell id="1" parent="0"/>
                <mxCell id="2" value="&lt;h1&gt;&lt;font color=&quot;#2d2e2c&quot; style=&quot;font-size: 20px&quot;&gt;Nav bar&lt;/font&gt;&lt;/h1&gt;" style="whiteSpace=wrap;html=1;fillColor=#bac8d3;strokeColor=#23445d;" vertex="1" parent="1">
                    <mxGeometry x="40" y="40" width="760" height="40" as="geometry"/>
                </mxCell>
                <mxCell id="4" value="&lt;h1&gt;&lt;font color=&quot;#2d2e2c&quot; style=&quot;font-size: 20px&quot;&gt;Hero section&lt;/font&gt;&lt;/h1&gt;" style="whiteSpace=wrap;html=1;fillColor=#bac8d3;strokeColor=#23445d;" vertex="1" parent="1">
                    <mxGeometry x="40" y="80" width="760" height="320" as="geometry"/>
                </mxCell>
                <mxCell id="5" value="&lt;font style=&quot;font-size: 21px&quot;&gt;Main picture&lt;/font&gt;" style="ellipse;whiteSpace=wrap;html=1;" vertex="1" parent="1">
                    <mxGeometry x="140" y="155" width="170" height="170" as="geometry"/>
                </mxCell>
            </root>
        </mxGraphModel>
    </diagram>
</mxfile>